Patient5_TMGait_0pt45_1_left_14_GRF.mot
version=1
nRows=45
nColumns=19
inDegrees=no
endheader
time	F1x	F1y	F1z	M1x	M1y	M1z	F2x	F2y	F2z	M2x	M2y	M2z	EC1x	EC1y	EC1z	EC2x	EC2y	EC2z
21.96	18.997	148.1616	-3.7524	-47.834	9.2186	115.8143	-49.583	700.4114	-42.8064	277.9956	65.8988	683.5138	-0.0592	0.0182	-0.0073	-0.0462	0.0165	0.9585
21.976	14.4745	120.3811	-4.2823	-39.4791	8.2712	95.4887	-34.1387	745.5478	-43.1895	295.6437	58.8124	728.6013	-0.0592	0.0182	-0.0073	-0.0462	0.0165	0.9585
21.992	9.0727	91.6399	-4.3959	-30.5721	6.6443	73.9439	-18.8927	790.3784	-44.7528	313.3422	52.9256	770.3214	-0.0592	0.0182	-0.0073	-0.0462	0.0165	0.9585
22.008	3.8902	65.1592	-4.0493	-22.1407	4.6775	53.6552	-4.1658	828.7205	-47.3664	328.5237	48.3244	802.8411	-0.0592	0.0182	-0.0073	-0.0462	0.0165	0.9585
22.024	-0.042453	42.7938	-3.3382	-14.8429	2.8057	36.1944	10.2267	857.087	-50.7792	339.6365	44.7109	823.638	-0.0592	0.0182	-0.0073	-0.0462	0.0165	0.9585
22.04	-2.1493	25.3237	-2.4119	-9.015	1.3558	22.3208	24.1147	875.0241	-54.9012	346.3492	42.0534	833.3664	-0.0592	0.0182	-0.0073	-0.0462	0.0165	0.9585
22.056	-2.5406	12.9764	-1.504	-4.8142	0.49595	12.3327	36.4274	884.1658	-59.5437	349.2484	40.5977	834.6414	-0.0592	0.0182	-0.0073	-0.0462	0.0165	0.9585
22.072	-1.9865	5.4685	-0.82606	-2.2079	0.14415	6.1372	45.3779	886.5784	-64.1885	349.2117	40.5821	830.2739	-0.0592	0.0182	-0.0073	-0.0462	0.0165	0.9585
22.088	-1.0987	1.7656	-0.38936	-0.88256	0.091805	3.0241	49.7011	883.4699	-68.1691	346.8563	41.9084	821.8883	-0.0592	0.0182	-0.0073	-0.0462	0.0165	0.9585
22.104	-0.2259	0.59383	-0.1652	-0.42468	0.19463	2.0172	49.7732	875.608	-70.9016	342.6313	43.8891	810.2535	-0.0592	0.0182	-0.0073	-0.0462	0.0165	0.9585
22.12	0.47568	0.79209	-0.061675	-0.44418	0.32514	2.1453	47.313	864.2287	-72.1956	337.1103	45.6437	796.2366	-0.0592	0.0182	-0.0073	-0.0462	0.0165	0.9585
22.136	0.97731	1.4461	0.0021026	-0.6296	0.41143	2.5925	44.3513	850.9037	-72.2533	330.9312	46.5148	780.893	-0.0592	0.0182	-0.0073	-0.0462	0.0165	0.9585
22.152	1.3014	1.9097	0.083356	-0.75255	0.41877	2.7821	42.3838	837.0902	-71.4233	324.6525	46.1892	765.239	-0.0592	0.0182	-0.0073	-0.0462	0.0165	0.9585
22.168	1.486	1.7559	0.23829	-0.65098	0.3032	2.3204	42.2528	823.9778	-70.0355	318.7298	44.6266	750.1236	-0.0592	0.0182	-0.0073	-0.0462	0.0165	0.9585
22.184	1.5684	0.71562	0.48183	-0.21954	0.052428	0.91881	44.2272	812.8018	-68.3421	313.6489	41.9691	736.4858	-0.0592	0.0182	-0.0073	-0.0462	0.0165	0.9585
22.2	1.5462	-1.3003	0.80616	0.57873	-0.33415	-1.544	48.0836	804.8992	-66.5413	309.9394	38.5149	725.4201	-0.0592	0.0182	-0.0073	-0.0462	0.0165	0.9585
22.216	1.3378	-4.0899	1.1431	1.6645	-0.81581	-4.8503	53.2079	801.4308	-64.8015	308.0491	34.6926	717.9322	-0.0592	0.0182	-0.0073	-0.0462	0.0165	0.9585
22.232	0.80355	-6.9865	1.3267	2.7728	-1.2483	-8.2451	58.7779	802.9783	-63.2608	308.1806	30.9777	714.5807	-0.0592	0.0182	-0.0073	-0.0462	0.0165	0.9585
22.248	-0.21618	-8.6006	1.092	3.3581	-1.3699	-10.1547	64.0127	809.2725	-61.9881	310.1946	27.7517	715.2355	-0.0592	0.0182	-0.0073	-0.0462	0.0165	0.9585
22.264	-1.8609	-6.5631	0.028307	2.4934	-0.73913	-7.8811	68.2814	819.0516	-60.9536	313.5635	25.2266	718.9688	-0.0592	0.0182	-0.0073	-0.0462	0.0165	0.9585
22.28	-4.1434	2.5916	-2.3733	-1.1751	1.2568	2.5348	71.1726	829.9724	-60.022	317.3456	23.4207	723.9314	-0.0592	0.0182	-0.0073	-0.0462	0.0165	0.9585
22.296	-6.7868	23.1731	-6.5863	-9.3233	5.3104	26.0608	72.4978	838.7512	-59.0313	320.2466	22.2309	727.4481	-0.0592	0.0182	-0.0073	-0.0462	0.0165	0.9585
22.312	-9.0234	59.3977	-12.8449	-23.5755	12.0219	67.6224	72.1769	841.575	-57.806	320.7931	21.4947	726.3772	-0.0592	0.0182	-0.0073	-0.0462	0.0165	0.9585
22.328	-9.4559	113.4495	-20.7082	-44.739	21.4358	129.8599	70.1496	834.7835	-56.1312	317.6108	21.0188	717.6723	-0.0592	0.0182	-0.0073	-0.0462	0.0165	0.9585
22.344	-7.0366	183.1648	-28.5783	-71.8841	32.0824	210.3804	66.3889	815.7215	-53.7749	309.753	20.6135	699.0923	-0.0592	0.0182	-0.0073	-0.0462	0.0165	0.9585
22.36	-3.7594	260.3792	-33.3867	-101.7055	39.5724	299.9045	61.0263	783.2646	-50.5475	296.8761	20.087	669.6549	-0.0592	0.0182	-0.0073	-0.0462	0.0165	0.9585
22.376	-4.2952	333.4877	-31.7654	-129.6085	38.1878	385.5451	54.4418	737.6604	-46.3099	279.1541	19.1977	629.5116	-0.0592	0.0182	-0.0073	-0.0462	0.0165	0.9585
22.392	-9.6835	396.2747	-23.6482	-153.2191	27.3125	460.547	47.1729	680.1832	-40.9793	257.1218	17.6876	579.6778	-0.0592	0.0182	-0.0073	-0.0462	0.0165	0.9585
22.408	-18.7669	448.8728	-12.0853	-172.7686	10.9385	525.0451	39.7031	612.8691	-34.592	231.5573	15.4058	521.8409	-0.0592	0.0182	-0.0073	-0.0462	0.0165	0.9585
22.424	-29.4437	492.973	-0.97917	-189.1902	-5.5416	580.6	32.3515	538.5524	-27.393	203.5047	12.4222	458.3917	-0.0592	0.0182	-0.0073	-0.0462	0.0165	0.9585
22.44	-39.7268	530.5792	7.212	-203.4542	-18.5032	629.0488	25.2817	460.9992	-19.8593	174.3391	9.0465	392.5197	-0.0592	0.0182	-0.0073	-0.0462	0.0165	0.9585
22.456	-48.536	563.7145	11.9076	-216.3725	-26.8502	672.2521	18.5979	384.6383	-12.6145	145.6693	5.7145	327.9487	-0.0592	0.0182	-0.0073	-0.0462	0.0165	0.9585
22.472	-55.277	594.3197	14.2308	-228.5638	-31.6722	711.9809	12.4945	313.7003	-6.3678	119.0288	2.896	268.1558	-0.0592	0.0182	-0.0073	-0.0462	0.0165	0.9585
22.488	-59.9849	623.8321	15.9688	-240.3782	-35.0675	749.5468	7.216	251.2946	-1.668	95.5458	0.91876	215.608	-0.0592	0.0182	-0.0073	-0.0462	0.0165	0.9585
22.504	-63.2148	653.167	18.4593	-251.9883	-38.7994	785.8721	2.898	198.9723	1.1901	75.7815	-0.034281	171.4803	-0.0592	0.0182	-0.0073	-0.0462	0.0165	0.9585
22.52	-65.6193	683.1589	22.2422	-263.6103	-43.7146	821.9271	-0.5066	156.7887	2.2245	59.7623	0.062387	135.7435	-0.0592	0.0182	-0.0073	-0.0462	0.0165	0.9585
22.536	-67.6395	714.142	27.0103	-275.3714	-49.5933	858.1468	-3.2746	123.7727	1.8015	47.1532	1.0622	107.5822	-0.0592	0.0182	-0.0073	-0.0462	0.0165	0.9585
22.552	-69.3751	745.4454	31.7904	-287.1	-55.3497	893.8034	-5.7243	98.441	0.49433	37.4332	2.6766	85.7918	-0.0592	0.0182	-0.0073	-0.0462	0.0165	0.9585
22.568	-70.7122	775.4315	35.6258	-298.2791	-59.8572	927.0795	-8.0632	79.1793	-1.1708	30.0216	4.6049	69.0606	-0.0592	0.0182	-0.0073	-0.0462	0.0165	0.9585
22.584	-71.4448	801.9444	38.0903	-308.1665	-62.5836	955.5732	-10.4044	64.5428	-2.8196	24.3888	6.6069	56.2067	-0.0592	0.0182	-0.0073	-0.0462	0.0165	0.9585
22.6	-71.3735	823.1506	39.2904	-316.0894	-63.6018	977.3117	-12.7886	53.4009	-4.2599	20.1092	8.5415	46.32	-0.0592	0.0182	-0.0073	-0.0462	0.0165	0.9585
22.616	-70.3326	838.2412	39.5437	-321.7035	-63.2236	991.4985	-15.0973	44.8394	-5.3989	16.8313	10.2726	38.6926	-0.0592	0.0182	-0.0073	-0.0462	0.0165	0.9585
22.632	-68.2283	847.4159	39.2117	-325.0058	-61.8245	998.4778	-16.9427	37.9602	-6.1452	14.2122	11.5534	32.5869	-0.0592	0.0182	-0.0073	-0.0462	0.0165	0.9585
22.648	-65.0976	851.5403	38.6337	-326.2222	-59.7845	999.3725	-17.7421	31.8187	-6.4035	11.8935	12.0571	27.2109	-0.0592	0.0182	-0.0073	-0.0462	0.0165	0.9585
22.664	-61.0413	851.7888	38.0411	-325.6966	-57.3676	995.6235	-16.9433	25.6063	-6.0662	9.5665	11.4658	21.8613	-0.0592	0.0182	-0.0073	-0.0462	0.0165	0.9585
